HIERARCHY
ROOT Hips
{
	OFFSET 0.00000 0.00000 0.00000
	CHANNELS 6 Xposition Yposition Zposition Zrotation Yrotation Xrotation 
	JOINT LHipJoint
	{
		OFFSET 0 0 0
		CHANNELS 3 Zrotation Yrotation Xrotation
		JOINT LeftUpLeg
		{
			OFFSET 1.48211 -1.84579 0.74791
			CHANNELS 3 Zrotation Yrotation Xrotation
			JOINT LeftLeg
			{
				OFFSET 2.56990 -7.06075 0.00000
				CHANNELS 3 Zrotation Yrotation Xrotation
				JOINT LeftFoot
				{
					OFFSET 2.57933 -7.08667 0.00000
					CHANNELS 3 Zrotation Yrotation Xrotation
					JOINT LeftToeBase
					{
						OFFSET 0.22969 -0.63106 2.10885
						CHANNELS 3 Zrotation Yrotation Xrotation
						End Site
						{
							OFFSET 0.00000 -0.00000 1.10362
						}
					}
				}
			}
		}
	}
	JOINT RHipJoint
	{
		OFFSET 0 0 0
		CHANNELS 3 Zrotation Yrotation Xrotation
		JOINT RightUpLeg
		{
			OFFSET -1.46257 -1.84580 0.74791
			CHANNELS 3 Zrotation Yrotation Xrotation
			JOINT RightLeg
			{
				OFFSET -2.63352 -7.23555 0.00000
				CHANNELS 3 Zrotation Yrotation Xrotation
				JOINT RightFoot
				{
					OFFSET -2.53360 -6.96100 0.00000
					CHANNELS 3 Zrotation Yrotation Xrotation
					JOINT RightToeBase
					{
						OFFSET -0.19079 -0.52420 2.00624
						CHANNELS 3 Zrotation Yrotation Xrotation
						End Site
						{
							OFFSET -0.00000 -0.00000 1.04369
						}
					}
				}
			}
		}
	}
	JOINT LowerBack
	{
		OFFSET 0 0 0
		CHANNELS 3 Zrotation Yrotation Xrotation
		JOINT Spine
		{
			OFFSET -0.02583 2.09021 -0.27313
			CHANNELS 3 Zrotation Yrotation Xrotation
			JOINT Spine1
			{
				OFFSET 0.02621 2.11682 -0.03538
				CHANNELS 3 Zrotation Yrotation Xrotation
				JOINT Neck
				{
					OFFSET 0 0 0
					CHANNELS 3 Zrotation Yrotation Xrotation
					JOINT Neck1
					{
						OFFSET 0.02848 1.69944 0.27193
						CHANNELS 3 Zrotation Yrotation Xrotation
						JOINT Head
						{
							OFFSET -0.09826 1.73070 -0.26626
							CHANNELS 3 Zrotation Yrotation Xrotation
							End Site
							{
								OFFSET -0.03061 1.75878 -0.12207
							}
						}
					}
				}
				JOINT LeftShoulder
				{
					OFFSET 0 0 0
					CHANNELS 3 Zrotation Yrotation Xrotation
					JOINT LeftArm
					{
						OFFSET 3.42696 0.97228 -0.33778
						CHANNELS 3 Zrotation Yrotation Xrotation
						JOINT LeftForeArm
						{
							OFFSET 5.25525 -0.00000 0.00000
							CHANNELS 3 Zrotation Yrotation Xrotation
							JOINT LeftHand
							{
								OFFSET 3.35106 -0.00000 0.00000
								CHANNELS 3 Zrotation Yrotation Xrotation
								JOINT LeftFingerBase
								{
									OFFSET 0 0 0
									CHANNELS 3 Zrotation Yrotation Xrotation
									JOINT LeftHandIndex1
									{
										OFFSET 0.57415 -0.00000 0.00000
										CHANNELS 3 Zrotation Yrotation Xrotation
										End Site
										{
											OFFSET 0.46290 -0.00000 0.00000
										}
									}
								}
								JOINT LThumb
								{
									OFFSET 0 0 0
									CHANNELS 3 Zrotation Yrotation Xrotation
									End Site
									{
										OFFSET 0.46996 -0.00000 0.46996
									}
								}
							}
						}
					}
				}
				JOINT RightShoulder
				{
					OFFSET 0 0 0
					CHANNELS 3 Zrotation Yrotation Xrotation
					JOINT RightArm
					{
						OFFSET -3.28720 1.02454 -0.32654
						CHANNELS 3 Zrotation Yrotation Xrotation
						JOINT RightForeArm
						{
							OFFSET -5.33104 -0.00000 0.00000
							CHANNELS 3 Zrotation Yrotation Xrotation
							JOINT RightHand
							{
								OFFSET -3.39883 -0.00000 0.00000
								CHANNELS 3 Zrotation Yrotation Xrotation
								JOINT RightFingerBase
								{
									OFFSET 0 0 0
									CHANNELS 3 Zrotation Yrotation Xrotation
									JOINT RightHandIndex1
									{
										OFFSET -0.91389 -0.00000 0.00000
										CHANNELS 3 Zrotation Yrotation Xrotation
										End Site
										{
											OFFSET -0.73680 -0.00000 0.00000
										}
									}
								}
								JOINT RThumb
								{
									OFFSET 0 0 0
									CHANNELS 3 Zrotation Yrotation Xrotation
									End Site
									{
										OFFSET -0.74805 -0.00000 0.74805
									}
								}
							}
						}
					}
				}
			}
		}
	}
}
MOTION
Frames: 12
Frame Time: 0.0138889
0.00 0.00 0.00 -178.2130 -31.8862 171.9420 0.0000 0.0000 0.0000 -9.1366 -4.1731 -32.0572 10.9677 17.9193 62.6768 0.0325 -11.5226 -8.5444 1.1181 -6.7173 -18.8804 0.0000 0.0000 0.0000 19.3243 -2.7139 -11.8624 -7.5584 -15.7846 50.9558 -2.0442 -8.3532 -31.0593 -0.6554 5.1783 -14.4179 1.4447 -1.4868 22.6585 1.0214 -2.1925 4.6760 0.9485 -1.3601 -7.5098 2.7632 0.9417 -18.0568 -7.5847 1.7446 12.8692 -2.7415 0.2316 6.9978 -0.0000 0.0000 0.0000 -72.2030 -19.9640 6.6641 39.7897 -47.9448 -18.2829 -0.0000 0.0000 -24.3013 29.2290 19.8727 10.7694 -7.1250 0.0000 -0.0000 0.8656 52.4773 0.1593 -0.0000 0.0000 0.0000 70.7397 10.9609 14.1146 -84.5974 59.8894 -55.3230 0.0000 -0.0000 -15.4824 -26.6601 13.6649 -6.7644 7.1250 -0.0000 -0.0000 0.5059 -14.7612 0.3604
0.00 0.00 0.00 -177.6860 -31.1655 171.6400 0.0000 0.0000 0.0000 -2.4416 -7.8572 -25.1855 9.1628 16.9113 56.6514 0.2938 2.6532 -11.5661 0.1533 -2.5231 -6.9538 0.0000 0.0000 0.0000 16.7725 -3.7929 -9.5961 -7.0410 -15.3663 49.0293 -1.9339 -7.6111 -29.9140 -0.5901 4.9184 -13.6759 0.7851 -1.2227 21.6650 1.0719 -1.9711 4.5761 1.2814 -1.2267 -7.0798 3.5070 1.0214 -18.9977 -7.3343 1.5597 11.6118 -2.7901 0.2154 6.7379 -0.0000 0.0000 0.0000 -75.1036 -4.9119 -2.7760 38.0836 -46.8926 -17.0266 -0.0000 0.0000 -20.8451 30.7249 21.5101 12.2940 -7.1250 0.0000 -0.0000 2.1410 54.5975 0.5050 -0.0000 0.0000 0.0000 74.5442 5.2515 12.1699 -57.9342 55.7339 -32.6280 0.0000 -0.0000 -11.4089 -23.0055 10.8324 -4.5623 7.1250 -0.0000 -0.0000 2.8698 -18.2450 1.8293
0.00 0.00 0.00 -183.9130 -50.9208 178.5290 0.0000 0.0000 0.0000 -22.4936 -9.2409 -6.6681 4.0378 12.2106 36.4810 -0.4443 -20.5886 -10.6076 0.0926 -1.9630 -5.4035 0.0000 0.0000 0.0000 12.2799 6.3847 -19.6425 -10.1876 -17.5140 60.1135 -0.8786 -1.0552 -18.1208 -0.1967 2.8560 -7.8782 -4.0841 -2.6491 18.1005 0.6183 -4.4931 2.6691 4.0414 -2.1838 -6.8794 1.6297 -5.3732 -20.4917 -1.2865 -7.5904 16.1380 -1.6653 -3.6323 8.2505 0.0000 -0.0000 0.0000 -84.9248 2.3745 20.2103 34.5682 -44.5013 -14.5099 -0.0000 0.0000 -10.2334 20.9867 18.7103 7.0151 -7.1250 0.0000 -0.0000 -7.1263 49.7841 -0.8443 0.0000 -0.0000 0.0000 87.6967 -2.0047 1.7103 -16.8000 26.5934 -3.9974 0.0000 0.0000 6.4680 -10.8939 6.7067 -1.2876 7.1250 -0.0000 -0.0000 11.6314 -23.1795 6.2394
0.00 0.00 0.00 -186.3870 -51.4730 176.9910 0.0000 0.0000 0.0000 -26.5333 4.0859 -2.9486 5.7757 14.2074 44.0747 -3.0826 -29.8212 5.5767 0.0324 1.1615 3.1932 0.0000 0.0000 0.0000 16.3534 7.6426 -18.9451 -5.8781 -14.3092 44.4907 -0.5741 -0.3552 -14.4493 -0.2169 -2.9979 8.2729 -1.6046 -3.8199 15.5105 1.5723 -5.4686 2.8188 3.6475 -2.7573 -5.3565 2.2463 -3.0076 -18.9890 -6.4856 -3.5710 19.3013 -3.0811 -2.3238 9.0222 0.0000 -0.0000 0.0000 -84.1504 -5.9285 30.6884 38.3368 -47.0531 -17.2117 -0.0000 -0.0000 0.1018 15.6243 19.8830 5.4333 -7.1250 0.0000 -0.0000 -12.6842 50.1322 -1.6276 0.0000 -0.0000 0.0000 78.8342 3.9677 17.6760 -32.0991 42.6261 -12.8079 0.0000 -0.0000 -1.4395 -13.0480 7.0048 -1.6189 7.1250 -0.0000 -0.0000 10.0455 -22.8194 5.4449
0.00 0.00 0.00 -183.3110 -14.0296 176.7780 0.0000 0.0000 0.0000 -17.5729 -7.2353 -8.2105 5.4565 13.8802 42.7595 0.6246 -15.3472 -16.5959 0.4964 -4.5172 -12.5364 0.0000 0.0000 0.0000 9.7535 4.9628 -13.4033 -4.7217 -13.0634 39.6061 -0.9324 1.6153 -17.7758 -0.0018 -0.2772 0.7616 0.3287 -1.4965 17.1577 0.6686 -2.2820 3.1165 1.0495 -1.2879 -6.2521 3.8768 3.8402 -15.3230 -10.0425 5.2973 7.2238 -3.3172 1.9350 5.0612 0.0000 -0.0000 0.0000 -100.9499 -73.1637 42.4743 47.1297 -51.7702 -23.9002 -0.0000 0.0000 -58.4444 34.5773 35.4991 21.8138 -7.1250 0.0000 -0.0000 1.9869 70.8720 1.2263 0.0000 -0.0000 0.0000 82.0285 76.9924 42.5782 -54.8621 54.7777 -30.1033 0.0000 -0.0000 -48.7749 -30.4189 -5.4618 3.1986 7.1250 -0.0000 -0.0000 -3.1355 -36.2916 -0.6722
0.00 0.00 0.00 -182.6910 1.9576 179.2950 0.0000 0.0000 0.0000 -22.8404 -4.4101 -20.7086 8.3380 16.3623 53.7712 0.8955 -17.8595 -19.6842 0.0707 1.7151 4.7188 0.0000 0.0000 0.0000 -1.9956 15.4096 -26.9999 -5.5330 -13.9600 43.0775 -0.3196 3.4360 -10.0512 -0.1887 2.7977 -7.7161 -0.7930 -3.0315 20.9759 1.0794 -2.7642 7.0676 2.2202 -0.8257 -3.9327 5.2983 1.9823 -13.9554 -5.0604 4.4573 27.2645 -2.0454 2.4521 11.3823 -0.0000 0.0000 0.0000 -94.7557 -16.9806 58.8884 56.8092 -55.3979 -31.7000 -0.0000 0.0000 -38.5837 38.5510 2.6939 2.1449 -7.1250 0.0000 -0.0000 9.7298 33.3081 -2.8233 -0.0000 0.0000 0.0000 92.8509 13.3263 46.7647 -71.7541 58.7039 -44.2674 0.0000 -0.0000 -33.3395 -23.0389 -1.8749 0.7971 7.1250 -0.0000 -0.0000 2.8498 -32.0087 0.9070
0.00 0.00 0.00 -182.1090 5.1229 177.3320 0.0000 0.0000 0.0000 -24.5321 -4.0861 -16.3508 7.2485 15.5376 49.8080 1.3824 -12.1077 -21.4394 0.0051 -0.4601 -1.2642 0.0000 0.0000 0.0000 -1.0212 14.8951 -22.9640 -4.0693 -12.2520 36.6295 -0.0679 2.6843 -4.7151 -0.0765 1.7846 -4.9106 -1.6590 -3.0592 20.3480 1.1522 -3.2142 6.2327 2.8928 -1.1399 -4.4311 5.7473 1.8434 -13.9954 -4.7599 3.9809 27.4271 -2.0828 2.3068 11.4259 -0.0000 0.0000 0.0000 -91.1813 -22.1292 56.0373 71.5518 -58.6742 -44.0945 -0.0000 0.0000 -44.5181 28.4510 40.2542 19.2967 -7.1250 0.0000 -0.0000 -12.7481 73.5671 -8.6574 -0.0000 0.0000 0.0000 88.4170 17.0483 44.6859 -90.8696 59.9971 -60.7530 0.0000 -0.0000 -24.6467 -10.8070 -5.9427 1.1322 7.1250 -0.0000 -0.0000 13.2609 -35.7572 3.0800
0.00 0.00 0.00 -181.7080 8.0691 178.1880 0.0000 0.0000 0.0000 -24.3877 -1.9045 -14.3071 5.9073 14.3379 44.6084 1.3372 -10.1223 -20.8292 0.0196 -0.9034 -2.4832 0.0000 0.0000 0.0000 1.1536 14.5326 -24.1200 -3.8794 -11.9981 35.7253 -0.0151 -0.9707 -2.8957 -0.0026 0.3317 -0.9114 -1.3762 -2.9059 16.4681 1.2003 -3.3859 4.6122 2.6865 -1.4089 -4.1346 5.2949 2.1901 -13.4957 -4.9553 4.4159 26.0615 -2.0191 2.3873 10.8335 0.0000 -0.0000 0.0000 -88.9735 -17.7529 49.3132 84.5635 -59.8880 -55.2936 -0.0000 0.0000 -41.6801 7.3009 36.2982 4.3373 -7.1250 0.0000 -0.0000 -32.7769 63.5359 -15.5652 0.0000 -0.0000 0.0000 83.0696 13.4050 46.9493 -107.7780 58.7714 -75.3327 0.0000 0.0000 6.2120 -15.1848 6.7348 -1.8231 7.1250 -0.0000 -0.0000 8.4985 -23.0223 4.5465
0.00 0.00 0.00 -182.9090 7.8481 176.2210 0.0000 0.0000 0.0000 -25.4840 -1.0517 -9.4980 5.0332 13.4210 40.9658 1.3932 -8.5929 -21.1331 0.0590 -1.5680 -4.3131 0.0000 0.0000 0.0000 1.6371 14.2489 -20.7224 -3.8083 -11.9009 35.3823 -0.0514 -0.3624 -4.4293 -0.0038 0.3999 -1.0989 -2.8187 -3.2648 15.6658 1.1818 -4.1870 4.0628 3.6017 -1.8364 -4.1341 5.2255 1.8563 -13.8874 -5.6867 4.1149 26.1581 -2.3123 2.1494 10.9424 -0.0000 0.0000 0.0000 -91.7591 -18.7319 57.0472 89.9342 -60.0000 -59.9430 -0.0000 0.0000 -28.3778 20.7578 26.5171 9.6046 -7.1250 0.0000 -0.0000 -10.3611 57.7626 -3.2601 -0.0000 0.0000 0.0000 78.1759 15.1309 48.7020 -123.5855 55.2763 -88.6245 0.0000 0.0000 3.1537 -15.1350 -0.3599 0.0973 7.1250 -0.0000 -0.0000 9.0175 -30.2861 3.2753
0.00 0.00 0.00 -184.9870 12.3166 174.9740 0.0000 0.0000 0.0000 -26.4830 0.4681 -3.0654 3.8097 11.9028 35.3891 1.7628 -3.0468 -24.3235 0.2345 -3.1168 -8.6040 0.0000 0.0000 0.0000 2.8870 12.6113 -19.8766 -4.1982 -12.4196 37.2330 -0.3655 6.7643 -11.0583 -0.0187 0.8836 -2.4287 -4.0771 -3.4005 12.8813 1.4292 -4.6806 2.9707 4.5049 -2.1645 -3.6152 5.5179 4.0363 -14.3923 -5.7879 6.2970 21.7603 -2.0942 2.9768 9.6101 -0.0000 -0.0000 0.0000 -91.0700 -29.5736 58.7610 91.9085 -59.9862 -61.6527 -0.0000 0.0000 -40.8926 -0.6718 23.9115 -0.2723 -7.1250 0.0000 -0.0000 -29.9263 51.2957 -5.0225 -0.0000 -0.0000 0.0000 74.2436 21.3659 34.1284 -130.1757 52.9244 -93.9661 0.0000 -0.0000 -31.8616 8.4956 -0.4791 -0.0716 7.1250 -0.0000 -0.0000 26.8451 -29.6857 11.1744
0.00 0.00 0.00 -184.4830 16.3897 175.5570 0.0000 0.0000 0.0000 -25.4987 0.7644 -0.4945 3.4473 11.3862 33.5937 2.0053 0.8127 -27.0963 0.3574 -3.8409 -10.6294 0.0000 0.0000 0.0000 5.1790 10.5390 -21.5245 -4.5831 -12.8984 38.9892 -0.5656 7.9953 -13.6906 -0.2928 3.4797 -9.6172 -4.2863 -3.3226 11.9340 2.7701 -4.6274 1.6960 6.0239 -2.1309 -4.3133 5.6595 4.9173 -15.2820 -6.0332 7.2565 20.4697 -2.0623 3.3397 9.4046 -0.0000 -0.0000 0.0000 -93.1859 -27.7866 59.4966 102.3308 -59.4176 -70.6579 -0.0000 0.0000 -5.1536 30.7831 27.3658 15.3142 -7.1250 0.0000 -0.0000 0.6611 61.0473 0.2585 -0.0000 -0.0000 0.0000 71.7859 16.9211 33.9116 -128.3727 53.6311 -92.5209 0.0000 -0.0000 -42.4234 -4.3854 -0.7117 0.0546 7.1250 -0.0000 -0.0000 17.3950 -30.4113 6.4654
0.00 0.00 0.00 -183.4130 20.0178 175.2380 0.0000 0.0000 0.0000 -23.9716 0.6310 2.6163 3.4706 11.4205 33.7116 2.1385 4.0232 -29.2933 0.6547 -5.1756 -14.4101 0.0000 0.0000 0.0000 8.0458 9.9234 -21.0230 -4.8854 -13.2536 40.3252 -0.3283 12.2771 -12.5186 -0.4817 4.4508 -12.3485 -4.2070 -3.3954 11.6079 4.1447 -4.5974 1.6163 7.4210 -2.1027 -4.1092 5.0389 6.0246 -15.3907 -6.8081 8.8232 18.1076 -2.0211 3.9321 8.7264 -0.0000 0.0000 0.0000 -92.4207 -20.2655 62.0514 121.0867 -56.0133 -86.5615 -0.0000 0.0000 -1.8186 34.1699 25.2764 16.1643 -7.1250 0.0000 -0.0000 5.3465 59.6139 1.9110 -0.0000 0.0000 0.0000 72.3533 12.6106 36.9668 -130.6005 52.7504 -94.3046 0.0000 -0.0000 -37.7026 -19.9354 -0.6618 0.2400 7.1250 -0.0000 -0.0000 5.2603 -30.6603 1.8494
